PathFileType	4	(X/Y/Z)	 s06c0202.trc
DataRate	CameraRate	NumFrames	NumMarkers	Units	OrigDataRate	OrigDataStartFrame	OrigNumFrames
200	200	4	48	mm	200	501	2000
Frame#	Time	racr			lacr			c7			jug			rlel			rdr			llel			ldr			s2			lic			ric			lasi			rasi			rpsi			lpsi			rgt			lgt			rth1			rth2			rth3			rth4			rlfc			rmfc			rsh1			rsh2			rsh3			rsh4			rlmal			rcal			rtoe			rmt5			lth1			lth2			lth4			lth3			llfc			lmfc			llmal			lcal			lmt5			lsh1			lsh2			lsh3			lsh4			ltoe			SBIKE			LBIKE			RBIKE			
		X1	Y1	Z1	X2	Y2	Z2	X3	Y3	Z3	X4	Y4	Z4	X5	Y5	Z5	X6	Y6	Z6	X7	Y7	Z7	X8	Y8	Z8	X9	Y9	Z9	X10	Y10	Z10	X11	Y11	Z11	X12	Y12	Z12	X13	Y13	Z13	X14	Y14	Z14	X15	Y15	Z15	X16	Y16	Z16	X17	Y17	Z17	X18	Y18	Z18	X19	Y19	Z19	X20	Y20	Z20	X21	Y21	Z21	X22	Y22	Z22	X23	Y23	Z23	X24	Y24	Z24	X25	Y25	Z25	X26	Y26	Z26	X27	Y27	Z27	X28	Y28	Z28	X29	Y29	Z29	X30	Y30	Z30	X31	Y31	Z31	X32	Y32	Z32	X33	Y33	Z33	X34	Y34	Z34	X35	Y35	Z35	X36	Y36	Z36	X37	Y37	Z37	X38	Y38	Z38	X39	Y39	Z39	X40	Y40	Z40	X41	Y41	Z41	X42	Y42	Z42	X43	Y43	Z43	X44	Y44	Z44	X45	Y45	Z45	X46	Y46	Z46	X47	Y47	Z47	X48	Y48	Z48	
501	2.5050	519.224704	1275.358614	-61.205433	521.385868	1250.352433	-386.397355	510.635909	1378.275891	-221.662225	523.433429	1216.676014	-215.425537	487.848970	1020.061375	51.210804	670.042971	916.912141	-54.593218	450.688582	992.691978	-465.938069	654.337737	924.519559	-386.439915	-12.169793	1150.734029	-216.515461	151.834889	1108.127034	-383.349456	127.653208	1127.133000	-46.863038	171.731600	1059.378607	-336.948475	153.905624	1079.676832	-80.929523	18.949890	1188.833230	-187.368992	22.996176	1184.799063	-247.561802	105.780772	1067.434617	-6.669002	124.349161	1032.151300	-401.327573	210.626651	1004.399320	-5.547515	297.593517	980.510066	-12.375630	358.825117	919.633102	-10.645277	311.565110	1008.668743	-34.165624	413.934393	829.351669	-36.949603	399.198521	808.095897	-147.784731	324.040672	741.492361	-16.456375	268.778849	678.995959	-39.284119	187.347801	644.569814	-42.393763	283.377448	664.819981	-75.206377	113.682315	603.174156	-47.340839	47.605073	623.108518	-98.092052	230.609421	415.759181	-97.171591	148.536916	470.254936	-28.515717	155.114917	908.819290	-420.263459	211.591327	842.737035	-416.284344	244.341441	858.216258	-406.636433	227.340280	754.735333	-408.786162	254.770728	636.116376	-390.545263	256.231853	618.498214	-274.834402	195.871026	264.968960	-377.661546	125.374388	236.964600	-331.867793	316.890923	189.009799	-403.460160	240.332184	526.044302	-412.058135	248.462505	441.786186	-392.591792	213.802488	359.944292	-388.296274	274.027703	442.479314	-362.362032	402.979657	191.290715	-344.790930	-202.750450	868.467226	-206.798685	-49.279201	84.025086	-414.447299	-49.103862	80.133903	-16.962962	
502	2.5100	518.543079	1275.126524	-60.775585	521.516748	1250.441999	-385.811704	510.289317	1378.019679	-220.911270	522.837322	1216.243358	-214.940899	487.648777	1019.916594	51.506859	669.975325	917.064253	-54.405141	451.271820	992.961647	-466.250671	654.843560	924.370844	-386.531128	-12.521780	1150.683692	-217.682277	151.640174	1108.183854	-384.023828	126.452641	1127.667733	-47.751045	171.549350	1059.549334	-337.757800	152.699654	1079.963369	-81.477734	18.482595	1188.577733	-188.443675	22.651139	1184.686937	-248.696478	104.733440	1068.752896	-7.500182	123.641875	1031.276229	-402.138043	209.994152	1006.548548	-5.880183	297.221310	983.846454	-12.074186	359.037563	923.587231	-10.326440	310.847659	1011.927219	-34.540989	415.725609	833.542586	-36.526381	400.828366	812.238755	-147.275811	326.195472	744.694880	-16.263483	271.180597	682.160012	-39.238011	189.869049	647.293308	-42.334897	285.574780	668.359051	-75.355878	116.130060	606.432342	-46.790304	49.681220	625.092975	-98.074070	235.984059	420.447049	-97.816568	153.166011	473.982314	-28.500031	153.725218	907.579957	-420.922609	209.764366	841.035570	-416.963387	242.623135	856.353048	-407.338840	224.825775	753.083735	-409.722554	251.556769	634.140440	-390.979259	252.973723	616.676262	-275.188580	192.056063	263.306674	-377.611387	121.481928	236.206019	-331.762713	312.373162	185.562253	-403.290095	236.772314	524.153728	-412.437199	244.826184	439.886158	-392.757137	210.070326	358.100860	-388.369428	270.431368	440.609169	-362.694770	398.415906	186.761147	-344.791879	-202.756593	868.542619	-206.912015	-49.284082	84.000248	-414.450888	-49.101371	80.124823	-16.963648	
503	2.5150	517.833955	1274.849198	-60.310944	521.622752	1250.648710	-385.138816	509.897632	1377.657589	-220.072066	522.122430	1215.646199	-214.441594	487.475816	1019.673708	51.746353	669.908446	917.224107	-54.259508	451.915755	993.159435	-466.540686	655.381545	924.270063	-386.676812	-13.051267	1150.455955	-218.918666	151.313325	1108.183181	-384.691319	125.196962	1128.075427	-48.682586	171.373553	1059.634667	-338.548366	151.413133	1080.157880	-82.134371	17.866178	1188.571607	-189.704036	22.272212	1184.517722	-249.918911	103.727248	1070.047632	-8.513764	122.847728	1030.355610	-402.938259	209.140207	1008.576972	-6.302405	296.673146	986.905620	-12.213977	359.397745	927.220574	-10.333507	310.097848	1014.996486	-34.816811	417.389921	837.550451	-36.560143	402.340392	816.415412	-146.867800	328.521214	747.783068	-16.058812	273.607447	685.167940	-39.385822	192.506811	649.957724	-42.242461	287.890409	671.582599	-75.730733	118.877708	608.843309	-47.293803	51.902339	626.790539	-98.010983	241.575662	425.389622	-97.818185	157.943025	477.554682	-28.513433	152.409209	906.337260	-421.590866	207.981215	839.399851	-417.713050	241.084711	854.541768	-408.150001	222.400150	751.325705	-410.403186	248.510713	632.302983	-391.305532	249.836521	614.885049	-275.546272	188.156708	261.759431	-377.580057	117.497773	235.452957	-331.637055	307.649782	182.456849	-403.332169	233.341711	522.444996	-412.749752	241.252771	438.121412	-393.063732	206.332154	356.428884	-388.531038	266.859515	438.823184	-362.924785	393.825926	182.527846	-344.687881	-202.747869	868.492050	-206.984373	-49.285097	84.021292	-414.452010	-49.087813	80.125639	-16.971018	
504	2.5200	517.053314	1274.471440	-59.848033	521.665479	1250.718858	-384.519044	509.481596	1377.275558	-219.282352	521.393218	1215.030381	-213.923024	487.002557	1019.539811	52.174531	669.827940	917.358657	-54.152626	452.560064	993.288325	-466.963624	655.913703	924.191743	-386.863225	-13.624522	1150.278442	-220.028599	150.946555	1108.108903	-385.261260	123.850691	1128.284724	-49.608673	171.162123	1059.608903	-339.449512	150.068648	1080.196607	-82.817894	17.263091	1188.544757	-191.018347	21.755329	1184.125226	-251.305152	102.617636	1071.423220	-9.929036	122.124243	1029.375910	-403.731597	208.259902	1010.664320	-6.660917	296.038682	989.860668	-12.267962	359.477104	930.927426	-10.193150	309.079304	1018.487702	-34.197489	418.993780	841.563948	-36.121421	403.377144	820.791252	-147.049190	330.888355	750.846669	-15.834213	276.126798	688.071260	-39.457843	195.268973	652.464172	-42.159050	290.399120	675.024471	-75.582708	121.643793	611.384761	-47.249335	54.211497	628.290427	-97.961764	247.219607	430.105222	-97.917108	162.546719	480.880439	-28.468791	151.112168	905.026549	-422.302078	206.326563	837.741534	-418.446579	239.514518	852.682595	-408.831173	220.262890	749.655789	-411.089524	245.716923	630.614763	-391.714630	246.944350	613.240442	-275.856122	184.142321	260.329871	-377.505798	113.376206	234.901532	-331.570795	302.806325	179.430070	-403.207781	230.050574	520.777610	-413.028570	237.720591	436.429135	-393.271304	202.559807	354.834180	-388.600982	263.339705	437.101291	-363.174301	388.991201	178.470535	-344.642874	-202.749593	868.527842	-206.989691	-49.289381	84.028591	-414.443950	-49.100993	80.126784	-16.965169	
